<svg width="25" height="20" viewBox="0 0 25 20" fill="none" xmlns="http://www.w3.org/2000/svg">
<path fill-rule="evenodd" clip-rule="evenodd" d="M17.5 6.25C17.5 9.01142 15.2614 11.25 12.5 11.25C9.73858 11.25 7.5 9.01142 7.5 6.25H17.5ZM18.75 6.25H17.5C17.5 3.48858 15.2614 1.25 12.5 1.25C9.73858 1.25 7.5 3.48858 7.5 6.25H6.25C6.25 2.79822 9.04822 0 12.5 0C15.9518 0 18.75 2.79822 18.75 6.25ZM18.75 6.25C18.75 9.70178 15.9518 12.5 12.5 12.5C9.04822 12.5 6.25 9.70178 6.25 6.25H0L3.97727 20H20.4545L25 6.25H18.75Z" fill="black"/>
</svg>
