<svg id="Layer_1" enable-background="new 0 0 56 55.259" height="512" viewBox="0 0 56 55.259" width="512" xmlns="http://www.w3.org/2000/svg"><ellipse cx="28.03" cy="6" rx="28" ry="6"/><path d="m54.981 9.728c-3.179 1.758-7.169 2.286-10.693 2.922-4.558.823-9.178 1.298-13.807 1.427-4.904.137-9.818-.116-14.682-.759-4.505-.595-9.611-1.209-13.76-3.112-.34-.155-.656-.317-.958-.481-.072-.04-.143-.08-.213-.12-.296-.17-.58-.343-.837-.524v3.94c0 .987.409 1.944 1.122 2.626l20.139 19.263c1.105 1.057 1.74 2.541 1.74 4.071v16.278l10-5.833v-10.446c0-1.53.634-3.014 1.74-4.071l20.137-19.263c.713-.682 1.123-1.639 1.123-2.626 0 0 0-3.94-.003-3.938-.34.233-.689.447-1.048.646z"/></svg>