<svg width="21" height="21" viewBox="0 0 21 21" fill="none" xmlns="http://www.w3.org/2000/svg">
<path fill-rule="evenodd" clip-rule="evenodd" d="M0 0V21H21L14.9565 14.9565C15.8213 13.8921 16.3396 12.5349 16.3396 11.0566C16.3396 7.63869 13.5689 4.86792 10.1509 4.86792C8.67265 4.86792 7.31542 5.38625 6.25107 6.25107L0 0ZM6.96271 6.96271L6.25107 6.25107C4.85456 7.38577 3.96226 9.11698 3.96226 11.0566C3.96226 14.4745 6.73303 17.2453 10.1509 17.2453C12.0906 17.2453 13.8218 16.353 14.9565 14.9565L14.2448 14.2448C14.9309 13.3652 15.3396 12.2586 15.3396 11.0566C15.3396 8.19098 13.0166 5.86792 10.1509 5.86792C8.94893 5.86792 7.84239 6.27665 6.96271 6.96271ZM6.96271 6.96271L14.2448 14.2448C13.2953 15.4623 11.8146 16.2453 10.1509 16.2453C7.28531 16.2453 4.96226 13.9222 4.96226 11.0566C4.96226 9.39298 5.7452 7.91223 6.96271 6.96271Z" fill="black"/>
</svg>
